<svg viewBox="0 0 97.3 96.3" xmlns="http://www.w3.org/2000/svg"><circle cx="48.5" cy="47" fill="#fff" r="47"/><path d="M34.3 19.9L26.7 5.4C14.1 12 4.8 24.1 2.2 38.6l16.5 3c1.5-9.4 7.4-17.4 15.6-21.7" fill="#ffcb12"/><path d="M18.4 46.3c0-1.6.1-3.1.4-4.6l-16.5-3c-.5 2.6-.7 5.3-.8 8 0 3.8.4 7.5 1.2 11.1L19.4 54c-.7-2.6-1-5.1-1-7.7" fill="#dc892a"/><path d="M19.3 53.8L2.6 57.6c1.2 5.1 3.2 9.9 5.9 14.3l14.8-9.2c-1.8-2.6-3.1-5.7-4-8.9" fill="#ec9d21"/><path d="M23.3 62.8L8.5 72c2.2 3.5 4.8 6.7 7.8 9.6C8.2 84.1 0 85.3 0 85.3c.3.3 9.5 6.6 24 9.6l11.1-21.6c-4.7-2.5-8.8-6.1-11.8-10.5" fill="#cf3c27"/><path d="M48.2 76.1c-4.7 0-9.1-1.1-13-3L24.1 94.7c7 1.5 15.3 2.1 24.5 1V76.1z" fill="#dd6927"/><path d="M48.5 76.1v19.7c4.3-.5 8.7-1.5 13.3-2.9 4.1-1.2 7.9-3 11.4-5.2l-9.7-15.8c-4.3 2.6-9.4 4.1-15 4.2" fill="#95bf3d"/><path d="M78 46.3c0 10.8-5.8 20.3-14.4 25.5l9.7 15.8c6.7-4.2 12.3-10.1 16.2-17.1 3.8-6.8 6-14.6 6.1-22.8 0-3.6-.3-7.1-1-10.5l-17.1 3.7c.3 1.7.5 3.5.5 5.4" fill="#c9d22c"/><path d="M49.1 0C41-.1 33.4 1.8 26.7 5.3l7.6 14.5c4.1-2.2 8.9-3.4 13.9-3.4 14.6 0 26.8 10.5 29.3 24.4l17.1-3.7C90.1 16.2 71.5.3 49.1 0" fill="#e7df17"/></svg>